# xmcd
#
# Track frame offsets:
#	150
#	14059
#	24268
#	40275
#	51323
#	63486
#	78399
#	89353
#	103822
#	118794
#	129573
#	138935
#	148733
#	164181
#	175059
#	188562
#
# Disc length: 2704 seconds
#
# Revision: 1
# Processed by: cddbd v1.5.2PL0 Copyright (c) Steve Scherf et al.
# Submitted via: audiograbber 1.83.01
#
DISCID=e60a8e10
DTITLE=Various Artist - The Essence Of Mexico
DYEAR=2004
DGENRE=Mexican Classics
TTITLE0=Mexican Hat Dance
TTITLE1=Mexican Shuffle
TTITLE2=La Cucaracha
TTITLE3=South Of The Border
TTITLE4=Cinco De Mayo
TTITLE5=Cielito Lindo
TTITLE6=Mexican Road Race
TTITLE7=El Cumparsita
TTITLE8=Tijuana Express
TTITLE9=El Soldado Solo
TTITLE10=Tequila
TTITLE11=Tijuana Taxi
TTITLE12=La Paloma
TTITLE13=Dia De Los Muertos
TTITLE14=Chiapanecas
TTITLE15=La Bamba
EXTD=
EXTT0=
EXTT1=
EXTT2=
EXTT3=
EXTT4=
EXTT5=
EXTT6=
EXTT7=
EXTT8=
EXTT9=
EXTT10=
EXTT11=
EXTT12=
EXTT13=
EXTT14=
EXTT15=
PLAYORDER=
